/vscmnt/brussel_pixiu_data/_data_brussel/112/vsc11236/PredSimResults/SUBJ09mtu3D/worker5.mot
version=1
nRows=9
nColumns=50
inDegrees=yes
endheader
                time	         pelvis_tilt	         pelvis_list	     pelvis_rotation	           pelvis_tx	           pelvis_ty	           pelvis_tz	       hip_flexion_r	     hip_adduction_r	      hip_rotation_r	        knee_angle_r	       ankle_angle_r	         mtp_angle_r	       hip_flexion_l	     hip_adduction_l	      hip_rotation_l	        knee_angle_l	       ankle_angle_l	         mtp_angle_l	    lumbar_extension	      lumbar_bending	     lumbar_rotation	 ercspn_r/activation	 intobl_r/activation	 extobl_r/activation	    abd_r/activation	    add_r/activation	hamstrings_r/activation	bifemsh_r/activation	glut_max_r/activation	iliopsoas_r/activation	rect_fem_r/activation	  vasti_r/activation	gastroc_r/activation	 soleus_r/activation	tib_ant_r/activation	 ercspn_l/activation	 intobl_l/activation	 extobl_l/activation	    abd_l/activation	    add_l/activation	hamstrings_l/activation	bifemsh_l/activation	glut_max_l/activation	iliopsoas_l/activation	rect_fem_l/activation	  vasti_l/activation	gastroc_l/activation	 soleus_l/activation	tib_ant_l/activation	
          1.20444870	         -4.07153254	         -1.66429541	          7.17581710	          1.49351638	          0.98573507	         -0.00398516	         28.91877501	         -0.39667638	         -7.52050888	         -5.50792879	          3.05756422	          0.25118074	        -12.67518073	         -2.76779613	         -3.13964769	        -10.94572890	         10.50077606	         28.91154121	        -13.80890195	         -0.03397631	         -3.38688463	          0.01039917	          0.14979320	          0.05517555	          0.06426728	          0.17331439	          0.07927022	          0.20164894	          0.07783043	          0.12358832	          0.02079011	          0.00999999	          0.01881903	          0.01000000	          0.39075260	          0.01000001	          0.01000004	          0.01731225	          0.02734714	          0.01200741	          0.06557405	          0.27419711	          0.02078728	          0.01000001	          0.01000000	          0.00999999	          0.22532654	          0.23610240	          0.00999999	
          1.21649318	         -4.06496908	         -1.71829542	          7.02954790	          1.51287269	          0.98355005	         -0.00379058	         28.70691225	         -0.23360219	         -7.45659510	         -7.11469147	          2.73057864	          0.21551031	        -13.40292203	         -2.93421128	         -3.68719911	        -11.69038172	          9.53979935	         30.66898821	        -13.34529333	          0.41939621	         -3.37724308	          0.01000000	          0.12475060	          0.04595123	          0.12789607	          0.15626647	          0.07824870	          0.16793702	          0.12678457	          0.10292667	          0.01731440	          0.00999999	          0.01567285	          0.01200740	          0.42730284	          0.01000001	          0.00999999	          0.01441797	          0.02277521	          0.01000000	          0.05461135	          0.22835659	          0.01731204	          0.01000026	          0.01000000	          0.00999999	          0.18765617	          0.19663050	          0.00999999	
          1.22853767	         -4.05063408	         -1.77934655	          6.84628271	          1.53238280	          0.98174438	         -0.00353264	         28.44561827	         -0.06203435	         -7.38764141	         -8.62891325	          2.18594824	          0.20746033	        -13.92064602	         -3.11572397	         -4.25922734	        -12.82204431	          8.41597963	         32.45294767	        -12.86966348	          0.88695281	         -3.34608460	          0.01000001	          0.10389464	          0.03826905	          0.18221754	          0.17035592	          0.06939579	          0.13986110	          0.16832144	          0.08571927	          0.01441977	          0.00999999	          0.01305265	          0.00999999	          0.46823541	          0.01000035	          0.00999999	          0.01200756	          0.01896762	          0.01000000	          0.04548155	          0.19017965	          0.01441779	          0.06384483	          0.01000000	          0.00999999	          0.15628358	          0.16375757	          0.00999999	
          1.24058216	         -4.03088705	         -1.84166829	          6.62862338	          1.55170794	          0.98055838	         -0.00321253	         28.27610286	          0.10719712	         -7.32243098	        -10.30814632	          1.74825024	          0.16446436	        -14.10947055	         -3.31527693	         -4.84346407	        -14.50065368	          7.08965642	         34.24328434	        -12.42170527	          1.36391313	         -3.29162127	          0.01000005	          0.08652540	          0.03187118	          0.22710068	          0.21743096	          0.06039744	          0.11647895	          0.21571681	          0.07138861	          0.01200907	          0.02993297	          0.01087050	          0.01000025	          0.48076991	          0.04607604	          0.00999999	          0.01000012	          0.01579659	          0.04751497	          0.03787817	          0.15838519	          0.01200741	          0.16805443	          0.01000000	          0.00999999	          0.13015589	          0.13638038	          0.00999999	
          1.25262664	         -4.00734383	         -1.89596986	          6.37893794	          1.57063479	          0.98017978	         -0.00284450	         28.19859519	          0.26380820	         -7.25566402	        -12.17691004	          1.64926910	          0.12751073	        -13.86571386	         -3.53532951	         -5.43578897	        -16.86889514	          5.51816178	         35.95609546	        -12.02469228	          1.84026740	         -3.21393852	          0.01441780	          0.07205998	          0.02654292	          0.24933189	          0.23388546	          0.05884504	          0.09700586	          0.22496844	          0.05945378	          0.01000138	          0.08238042	          0.01000001	          0.01000001	          0.47342542	          0.09113761	          0.00999999	          0.00999999	          0.01315570	          0.08948617	          0.03154578	          0.13190616	          0.00999999	          0.14358865	          0.00999999	          0.00999999	          0.10839627	          0.11358014	          0.01177450	
          1.26467113	         -3.98176311	         -1.92577892	          6.09501491	          1.58907901	          0.98070371	         -0.00245194	         28.08435380	          0.41026647	         -7.15494731	        -13.96791588	          1.75894006	          0.09780681	        -13.14744286	         -3.76988004	         -6.04897678	        -19.98893242	          3.81880812	         37.09697061	        -11.68548063	          2.29728426	         -3.11097171	          0.01200743	          0.06001290	          0.02210544	          0.25676099	          0.25635397	          0.05955450	          0.08078830	          0.21376378	          0.04951422	          0.01000008	          0.11348460	          0.01000003	          0.01000002	          0.45086410	          0.07590115	          0.00999999	          0.00999999	          0.01095631	          0.14033490	          0.02627244	          0.10985392	          0.00999999	          0.11958332	          0.00999999	          0.00999999	          0.09027445	          0.09459167	          0.05530980	
          1.27671562	         -3.95453819	         -1.91786228	          5.77577375	          1.60701098	          0.98203399	         -0.00207599	         27.83295000	          0.54527414	         -7.00051995	        -15.49374378	          2.02807313	          0.08426400	        -11.93903779	         -4.02106068	         -6.69623742	        -23.93790218	          2.33117519	         36.82300978	        -11.40475865	          2.72330614	         -2.97899060	          0.01000001	          0.04997987	          0.01840983	          0.25654850	          0.25238987	          0.06611656	          0.06728201	          0.19765883	          0.04123637	          0.01000004	          0.14293520	          0.01000000	          0.01000000	          0.41713965	          0.06321191	          0.01942551	          0.01180968	          0.00999999	          0.16811443	          0.02188034	          0.09148841	          0.00999999	          0.09959123	          0.00999999	          0.00999999	          0.07518225	          0.07877772	          0.10717844	
          1.28876011	         -3.92709265	         -1.86526154	          5.42521228	          1.62439836	          0.98402328	         -0.00174774	         27.39303424	          0.66571742	         -6.77499164	        -16.65014613	          2.41792513	          0.10460352	        -10.27356469	         -4.29450455	         -7.34974508	        -28.61115035	          0.94906588	         35.10729516	        -11.18297650	          3.11039768	         -2.81637576	          0.01000002	          0.04162417	          0.01533205	          0.23919726	          0.21019501	          0.06320865	          0.05603373	          0.16461399	          0.03434242	          0.01000005	          0.17354319	          0.01000002	          0.01000000	          0.37928839	          0.08548008	          0.06772620	          0.05920499	          0.00999999	          0.14000886	          0.01822237	          0.07619326	          0.00999999	          0.08294145	          0.00999999	          0.00999999	          0.06261319	          0.06560756	          0.16873019	
          1.30080459	         -3.90015795	         -1.76829568	          5.05059561	          1.64115271	          0.98651964	         -0.00144448	         26.77562416	          0.76843169	         -6.47636217	        -17.43410303	          2.86454034	          0.20707085	         -8.22936362	         -4.58902167	         -7.95727769	        -33.81306727	         -0.26259896	         31.87470633	        -11.03173924	          3.44642419	         -2.62502939	          0.01000001	          0.03466539	          0.01276882	          0.20766118	          0.17505435	          0.05997109	          0.04666594	          0.13709362	          0.02860101	          0.01000005	          0.19480563	          0.01000000	          0.00999999	          0.34307975	          0.11012739	          0.10982762	          0.12460559	          0.01000000	          0.11660200	          0.01517595	          0.06345518	          0.00999999	          0.06907520	          0.01025314	          0.00999999	          0.05214544	          0.05463921	          0.27245952	
